<svg width="150" height="24" viewBox="0 0 150 24" fill="none" xmlns="http://www.w3.org/2000/svg">
	<path d="M12.1734 17.7366C11.9805 17.6159 11.7536 17.5622 11.5275 17.5837H6.07349C5.46789 17.5837 4.88738 17.4392 4.40916 17.0786C4.1862 16.8528 4.01606 16.5797 3.91108 16.2794C3.80611 15.9791 3.80228 15.6648 3.80228 15.3424V0.667523C3.80228 0.372867 3.76326 0.197615 3.64668 0.115218C3.47952 -0.00291522 3.25952 0.00461402 3.05556 0.00461238H0.722135C0.511153 0.00461238 0.337065 0.00461238 0.177781 0.13087C0.101546 0.191299 0.0602866 0.286326 0.0306115 0.37931C0.00765399 0.451245 -9.97416e-05 0.559298 9.66517e-07 0.667523V15.3424C9.66517e-07 16.1833 0.0871063 16.7653 0.255425 17.4575C0.412681 18.1137 0.709938 18.7276 1.12657 19.2566C1.57586 19.8092 2.15265 20.2428 2.80665 20.5196C3.65636 20.8622 4.53229 20.9932 5.48238 20.9932H11.0638C11.4336 20.9932 11.7825 20.989 12.093 20.915C12.3095 20.8634 12.4234 20.8125 12.5714 20.6905C12.6434 20.6311 12.6724 20.5667 12.6972 20.4738C12.7156 20.4046 12.708 20.3363 12.708 20.2614C12.708 20.2614 12.5007 18.6323 12.3974 18.292C12.2941 17.9516 12.3296 17.8695 12.1734 17.7366ZM37.8207 13.2667C37.338 12.8963 36.809 12.5912 36.2473 12.3593C35.6557 12.1111 35.0505 11.8772 34.4317 11.6577C33.8899 11.4758 33.4301 11.3017 33.0522 11.1354C32.7326 11.0008 32.4256 10.8378 32.1348 10.6482C31.9263 10.5152 31.7506 10.3363 31.621 10.1249C31.5063 9.91436 31.4475 9.67762 31.4502 9.43754C31.4522 9.24616 31.4956 9.05752 31.5773 8.88469C31.659 8.71187 31.7771 8.55899 31.9234 8.43668C32.3651 8.09364 32.9164 7.92537 33.4731 7.96369C34.0866 7.94974 34.7001 7.98708 35.3073 8.07532C35.9824 8.18836 36.6466 8.35956 37.2925 8.58702C37.4062 8.63687 37.5312 8.65457 37.6542 8.63819C37.7401 8.61777 37.8107 8.53023 37.8658 8.37558L38.5009 6.72474C38.5362 6.59312 38.5388 6.45473 38.5081 6.32189C38.4852 6.25703 38.4483 6.19806 38.4001 6.14919C38.3519 6.10032 38.2936 6.06274 38.2293 6.03914C37.471 5.74496 36.684 5.53213 35.8813 5.4042C35.079 5.2752 34.267 5.21732 33.4546 5.23123C32.6614 5.23187 31.8732 5.35728 31.1185 5.60291C30.5029 5.80326 29.9315 6.12099 29.4352 6.53875C28.9969 6.91534 28.6514 7.38921 28.4259 7.92303C28.1985 8.47584 28.0899 9.07082 28.1073 9.66887C28.1061 10.1932 28.2184 10.7115 28.4364 11.1877C28.655 11.6372 28.9613 12.0377 29.337 12.3655C29.7808 12.7478 30.2769 13.0637 30.8102 13.3035C31.4879 13.6153 32.1813 13.8912 32.8877 14.13C33.7035 14.3939 34.4921 14.7365 35.2425 15.153C35.4814 15.2778 35.6821 15.4655 35.8233 15.6961C35.9645 15.9266 36.0408 16.1914 36.0442 16.4622C36.0523 16.6998 36.0034 16.9359 35.9017 17.1505C35.7999 17.3651 35.6483 17.5518 35.4597 17.695C34.9283 18.059 34.2926 18.237 33.6508 18.2015C32.8932 18.2029 32.1376 18.1246 31.3962 17.968C30.5979 17.8167 29.8194 17.5745 29.0755 17.2463C29.0068 17.2044 28.9302 17.1772 28.8507 17.1662C28.7711 17.1553 28.6901 17.1608 28.6127 17.1826C28.4883 17.2647 28.3902 17.3813 28.33 17.5183L27.6656 19.1406C27.6262 19.1976 27.6002 19.2629 27.5897 19.3316C27.5792 19.4003 27.5845 19.4705 27.6052 19.5368C27.6258 19.6031 27.6613 19.6638 27.7088 19.7142C27.7564 19.7645 27.8148 19.8033 27.8795 19.8275C28.3069 20.0589 28.7554 20.2485 29.2188 20.3935C29.7129 20.5506 30.2176 20.6716 30.729 20.7555C31.2512 20.8419 31.773 20.9046 32.2944 20.9436C32.8158 20.9821 33.2914 20.9932 33.7543 20.9932C34.505 20.9932 35.2877 20.8772 36.0217 20.6768C36.6681 20.5043 37.2763 20.2105 37.8145 19.811C38.3161 19.4317 38.7194 18.9362 38.99 18.3666C39.2799 17.7343 39.4167 17.0418 39.3891 16.346C39.3967 15.7155 39.2418 15.0938 38.9396 14.5415C38.6517 14.048 38.2718 13.6152 37.8207 13.2667ZM20.4256 4.95274C19.5185 4.95703 18.6127 5.02054 17.7138 5.14285C16.8064 5.25645 15.9155 5.47758 15.0597 5.80163C14.8095 5.89947 14.7229 6.10435 14.8001 6.41629L15.204 8.08475C15.2424 8.26036 15.3097 8.36768 15.4059 8.40672C15.5592 8.44404 15.7201 8.43383 15.8675 8.37744C16.4809 8.19171 17.1079 8.0547 17.7427 7.96767C18.4489 7.85564 19.1625 7.79693 19.8775 7.79202C20.3842 7.77751 20.8902 7.84165 21.3775 7.98218C21.7204 8.08399 22.0328 8.27013 22.2863 8.5238C22.5042 8.75282 22.6584 9.03548 22.7334 9.3434C22.8128 9.67894 22.8516 10.0229 22.8488 10.3679V10.8655H19.6178C18.6239 10.8404 17.6332 10.9889 16.6898 11.3046C15.9686 11.5511 15.3056 11.9446 14.7424 12.4606C14.2537 12.9212 13.8826 13.4936 13.6607 14.1293C13.4393 14.7641 13.3271 15.4322 13.3289 16.105C13.3252 16.7457 13.4226 17.3829 13.6173 17.9928C13.813 18.5937 14.167 19.1298 14.6416 19.5442C15.2237 20.0329 15.9021 20.3921 16.6322 20.5979C17.6597 20.8867 18.7243 21.0199 19.7909 20.9932C20.2524 20.9932 20.738 20.9786 21.2476 20.9492C21.7572 20.9199 22.2717 20.8662 22.7911 20.7883C23.3021 20.7121 23.8079 20.6045 24.3058 20.4661C24.7751 20.3376 25.2333 20.1713 25.676 19.9688C25.8544 19.8833 26.0026 19.7448 26.1006 19.5721C26.1986 19.3994 26.2417 19.2006 26.2241 19.0025V10.2216C26.2736 9.50593 26.1749 8.78772 25.934 8.11252C25.6932 7.43731 25.3156 6.81983 24.825 6.29925C23.892 5.40185 22.4255 4.95302 20.4256 4.95274ZM22.82 17.7734C22.5533 17.8759 22.2781 17.9542 21.9977 18.0075C21.6995 18.0661 21.4158 18.1149 21.1467 18.1539C20.8934 18.1917 20.6383 18.2161 20.3824 18.2269C20.1417 18.237 19.9541 18.2419 19.8197 18.2417C19.0485 18.2777 18.2816 18.1059 17.5984 17.7441C17.3119 17.5571 17.0822 17.2942 16.9346 16.9844C16.787 16.6745 16.7272 16.3297 16.7618 15.9879C16.7352 15.5064 16.8506 15.0277 17.0937 14.6121C17.3034 14.2907 17.5914 14.0287 17.9303 13.8511C18.2626 13.6768 18.6248 13.5675 18.9977 13.5291C19.3474 13.4916 19.6988 13.472 20.0505 13.4706H22.82V17.7734ZM50.3872 20.0048L50.0699 18.1315C50.0652 18.028 50.0244 17.9294 49.9546 17.8533C49.8968 17.8047 49.7718 17.7999 49.5794 17.8387C49.4446 17.8585 49.2763 17.8829 49.0745 17.9118C48.8726 17.9411 48.6706 17.9655 48.4687 17.9851C48.2668 18.0046 48.0697 18.0192 47.8774 18.0289C47.6848 18.0389 47.5313 18.0437 47.4159 18.0437C46.9469 18.08 46.4788 17.9851 46.0889 17.6924C45.9016 17.5518 45.8074 17.3407 45.7326 17.1179C45.6577 16.8952 45.6561 16.6672 45.6561 16.4045V8.53492H48.5553C48.7665 8.53492 48.8962 8.49588 48.9445 8.41781C49.0012 8.2995 49.0261 8.16833 49.0168 8.03733V6.44255C49.0211 6.32608 48.9963 6.21037 48.9445 6.10611C48.8965 6.01829 48.7667 5.97434 48.5553 5.97425H45.6561V2.25683C45.6668 2.17964 45.6594 2.10099 45.6343 2.02724C45.6093 1.95348 45.5674 1.88669 45.5119 1.83225C45.4565 1.79751 45.3941 1.77558 45.3292 1.76802C45.2644 1.76046 45.1987 1.76746 45.1368 1.78853L43.0709 2.37253C42.9094 2.42362 42.758 2.50288 42.6237 2.60672C42.5334 2.66093 42.4474 2.74705 42.4008 2.84185C42.3542 2.93665 42.3234 3.01413 42.3234 3.14117V5.97424H40.9412C40.7132 5.97424 40.6291 6.02833 40.5714 6.1061C40.5364 6.1534 40.3949 6.48121 40.3633 6.53265C40.3633 6.53265 39.8376 7.93901 39.8 8.08175C39.7821 8.13689 39.7806 8.19609 39.7956 8.25208C39.8107 8.30808 39.8416 8.35845 39.8847 8.39701C39.933 8.4472 39.992 8.48569 40.0573 8.50958C40.1226 8.53347 40.1924 8.54212 40.2615 8.53491H42.3097L42.3234 16.8435C42.3234 17.9851 42.4949 19.0593 43.2906 19.9755C43.9106 20.6895 45.0594 21.0003 46.637 21C47.0021 21 47.5118 20.9805 48.1659 20.9415C48.8333 20.8995 49.4926 20.7716 50.1276 20.5609C50.3007 20.4831 50.3916 20.4001 50.4015 20.312C50.4102 20.2094 50.4054 20.1061 50.3872 20.0048Z" fill="white"></path>
	<path d="M142.123 4.12775C142.001 4.12753 141.881 4.15146 141.769 4.19818C141.657 4.2449 141.555 4.31348 141.469 4.39998C141.383 4.48648 141.315 4.5892 141.269 4.70223C141.223 4.81526 141.199 4.93638 141.199 5.05863V20.0645C141.199 20.1868 141.223 20.3079 141.269 20.421C141.315 20.5341 141.383 20.6368 141.469 20.7234C141.555 20.81 141.657 20.8787 141.769 20.9256C141.881 20.9725 142.001 20.9966 142.123 20.9966C142.244 20.9966 142.365 20.9725 142.477 20.9256C142.589 20.8787 142.691 20.81 142.777 20.7234C142.863 20.6368 142.931 20.5341 142.977 20.421C143.023 20.3079 143.047 20.1868 143.046 20.0645V5.05863C143.047 4.81191 142.949 4.57523 142.776 4.40066C142.603 4.22609 142.368 4.12792 142.123 4.12775ZM122.425 9.49937C121.798 9.49438 121.184 9.67699 120.66 10.024C120.136 10.3711 119.727 10.867 119.483 11.4487C119.24 12.0305 119.174 12.6719 119.293 13.2916C119.412 13.9113 119.712 14.4814 120.153 14.9295C120.595 15.3776 121.159 15.6836 121.774 15.8086C122.388 15.9335 123.026 15.8719 123.606 15.6315C124.186 15.3911 124.681 14.9827 125.03 14.4582C125.379 13.9337 125.565 13.3167 125.565 12.6855C125.569 11.8438 125.24 11.0353 124.651 10.4378C124.062 9.84028 123.261 9.50273 122.425 9.49937ZM132.954 9.49937C132.327 9.49438 131.712 9.67699 131.189 10.024C130.665 10.3711 130.255 10.867 130.012 11.4487C129.768 12.0305 129.702 12.6719 129.822 13.2916C129.941 13.9113 130.24 14.4814 130.682 14.9295C131.124 15.3776 131.687 15.6836 132.302 15.8086C132.917 15.9335 133.554 15.8719 134.134 15.6315C134.714 15.3911 135.21 14.9827 135.559 14.4582C135.908 13.9337 136.094 13.3167 136.094 12.6855C136.097 11.8438 135.768 11.0353 135.179 10.4378C134.59 9.84028 133.79 9.50272 132.954 9.49937ZM111.897 9.49937C111.27 9.49438 110.655 9.67699 110.132 10.024C109.608 10.3711 109.198 10.867 108.955 11.4487C108.712 12.0305 108.645 12.6719 108.765 13.2916C108.884 13.9113 109.183 14.4814 109.625 14.9295C110.067 15.3776 110.631 15.6836 111.245 15.8086C111.86 15.9335 112.498 15.8719 113.077 15.6315C113.657 15.3911 114.153 14.9827 114.502 14.4582C114.851 13.9337 115.037 13.3167 115.037 12.6855C115.04 11.8438 114.711 11.0353 114.122 10.4378C113.534 9.84027 112.733 9.50271 111.897 9.49937Z" fill="#DD2222"></path>
	<path d="M65.0212 11.0613C65.5144 10.3933 65.8667 9.63082 66.0565 8.82068C66.2139 8.16746 66.3008 7.49901 66.3154 6.82699C66.3253 5.91116 66.1545 4.78403 65.8129 3.93516C65.495 3.1379 65.0133 2.41731 64.3993 1.82067C63.7853 1.22404 63.053 0.764842 62.2503 0.473222C61.358 0.145384 60.4709 -2.42724e-06 59.4643 1.02044e-07H53.6671C53.4814 -5.59084e-06 53.169 4.56111e-05 52.9674 0.0524219C52.7535 0.107985 52.6177 0.146939 52.4421 0.38249C52.3232 0.541991 52.2563 0.690043 52.2188 0.885865C52.1573 1.20745 52.1583 1.4794 52.1499 1.75604L52.1499 20.3509C52.1499 20.4054 52.1604 20.5826 52.1877 20.6788C52.2149 20.7749 52.2497 20.8261 52.3506 20.892C52.4978 20.9881 52.6595 21 52.8502 21H54.7586C55.0257 21 55.3482 21 55.5094 20.892C55.6351 20.8078 55.6466 20.6364 55.6466 20.351L55.6466 13.6575H59.1595C60.4383 13.6575 61.6959 13.452 62.8442 12.9002C63.6996 12.4623 64.4443 11.8334 65.0212 11.0613ZM61.9523 9.51597C61.5774 9.86322 61.1345 10.1278 60.6521 10.2928C60.1698 10.4578 59.7363 10.4741 59.151 10.4741H55.4536V3.39415H59.0902C59.7263 3.37208 60.3596 3.48804 60.9473 3.73414C61.3876 3.9255 61.7784 4.21626 62.0892 4.58395C62.3585 4.91503 62.5556 5.29944 62.6678 5.7122C62.7736 6.08426 62.8299 6.68724 62.8354 7.07421C62.8684 7.97288 62.5516 8.84905 61.9523 9.51597ZM71.4487 4.95626C70.3071 4.99869 69.1766 5.19862 68.0889 5.55045C67.8388 5.64804 67.7522 5.8529 67.8292 6.16503L68.2331 7.83312C68.2716 8.0087 68.339 8.116 68.4352 8.15501C68.5885 8.19218 68.7493 8.18198 68.8968 8.12574C69.547 7.9258 70.2209 7.81454 70.9004 7.79494C71.4073 7.78028 71.9134 7.84444 72.4009 7.98515C72.7439 8.08672 73.0563 8.2728 73.3099 8.52656C73.5281 8.7552 73.6824 9.03788 73.7571 9.34592C73.8367 9.68137 73.8755 10.0253 73.8726 10.3702V10.8677H70.6407C69.6466 10.8426 68.6556 10.9911 67.7119 11.3067C66.9906 11.553 66.3275 11.9465 65.7641 12.4626C65.2754 12.9229 64.9042 13.4951 64.682 14.1307C64.4607 14.7654 64.3484 15.4334 64.3501 16.106C64.3467 16.7466 64.4441 17.3837 64.6387 17.9936C64.8348 18.5942 65.1887 19.1302 65.6631 19.5446C66.2455 20.0332 66.9241 20.3922 67.6541 20.5981C68.6821 20.8868 69.7467 20.9932 70.8139 20.9932C71.2935 20.9932 71.7612 20.9786 72.2711 20.9493C72.7809 20.9201 73.2955 20.8664 73.8149 20.7883C74.3259 20.7121 74.8318 20.6046 75.3298 20.4664C75.7991 20.3376 76.2574 20.1712 76.7004 19.9689C76.8789 19.8837 77.0271 19.7454 77.1251 19.5727C77.2232 19.4 77.2663 19.2013 77.2487 19.0032V10.2239C77.2983 9.50827 77.1995 8.79011 76.9585 8.11502C76.7176 7.43993 76.3398 6.82267 75.8492 6.30247C74.9162 5.40499 73.4494 4.95627 71.4487 4.95626ZM73.8438 17.7741C73.577 17.8764 73.3018 17.9548 73.0213 18.0082C72.7232 18.0668 72.4394 18.1155 72.17 18.1546C71.9166 18.1921 71.6614 18.2165 71.4055 18.2277C71.1649 18.2375 70.9773 18.2423 70.8427 18.2424C70.0714 18.2782 69.3044 18.1065 68.6208 17.7449C68.3344 17.558 68.1048 17.2952 67.9571 16.9854C67.8095 16.6756 67.7496 16.3308 67.7841 15.989C67.7575 15.5076 67.873 15.0291 68.1159 14.6136C68.3257 14.2922 68.6138 14.0303 68.9527 13.8527C69.2851 13.6784 69.6474 13.5691 70.0203 13.5307C70.3702 13.4931 70.7217 13.4736 71.0736 13.4722H73.8438V17.7741ZM88.8496 13.2647C88.3667 12.8939 87.8375 12.5886 87.2757 12.3566C86.684 12.1082 86.0786 11.8742 85.4595 11.6546C84.9175 11.4725 84.4576 11.2983 84.0796 11.1319C83.7599 10.9972 83.4528 10.8341 83.1619 10.6444C82.9533 10.5113 82.7775 10.3322 82.6478 10.1207C82.5331 9.91002 82.4743 9.6731 82.4771 9.43285C82.479 9.24133 82.5224 9.05254 82.6041 8.87959C82.6859 8.70663 82.804 8.55364 82.9503 8.43125C83.3923 8.08799 83.9438 7.91961 84.5007 7.95797C85.1143 7.94396 85.7279 7.98131 86.3353 8.06964C87.0106 8.18274 87.675 8.35406 88.3211 8.5817C88.4349 8.63158 88.56 8.64929 88.683 8.63294C88.7689 8.61251 88.8399 8.52489 88.8947 8.37011L89.5302 6.71811C89.5653 6.58635 89.5678 6.4479 89.5372 6.31497C89.5143 6.25006 89.4774 6.19104 89.4292 6.14212C89.381 6.0932 89.3226 6.0556 89.2583 6.03198C88.4998 5.73762 87.7124 5.52466 86.9095 5.39665C86.1069 5.26754 85.2947 5.20961 84.4821 5.22352C83.6887 5.22422 82.9002 5.34972 82.1453 5.5955C81.5295 5.79598 80.9578 6.11393 80.4614 6.532C80.0229 6.90883 79.6773 7.38304 79.4519 7.91725C79.2244 8.47044 79.1157 9.06585 79.1332 9.66432C79.1319 10.1891 79.2443 10.7077 79.4626 11.1842C79.6811 11.6341 79.9874 12.0349 80.3633 12.3629C80.8071 12.7454 81.3034 13.0615 81.8368 13.3015C82.5147 13.6135 83.2084 13.8896 83.9149 14.1286C84.731 14.3926 85.5199 14.7355 86.2705 15.1523C86.5094 15.2772 86.7102 15.465 86.8514 15.6957C86.9927 15.9264 87.0691 16.1914 87.0725 16.4624C87.0806 16.7002 87.0317 16.9364 86.9299 17.1512C86.8281 17.3659 86.6765 17.5528 86.4878 17.696C85.9562 18.0603 85.3203 18.2384 84.6783 18.203C83.9205 18.2043 83.1647 18.126 82.4231 17.9692C81.6246 17.8178 80.8464 17.5792 80.1016 17.247C80.0281 17.2143 79.9563 17.1779 79.8767 17.1669C79.7971 17.156 79.7161 17.1616 79.6387 17.1833C79.5143 17.2656 79.424 17.3536 79.3559 17.5192L78.6941 19.1204C78.6527 19.2075 78.6414 19.2738 78.6309 19.3426C78.6204 19.4113 78.6102 19.4729 78.6309 19.5392C78.6515 19.6056 78.6737 19.6475 78.7213 19.698C78.7689 19.7484 78.8434 19.7994 78.9053 19.8301C79.3493 20.05 79.7815 20.2513 80.245 20.3965C80.7392 20.5537 81.2441 20.6748 81.7556 20.7588C82.2781 20.8453 82.8 20.908 83.3215 20.947C83.8431 20.9855 84.3354 20.9932 84.7984 20.9932C85.5575 20.9932 86.3158 20.8806 87.0499 20.68C87.6965 20.5072 88.3049 20.2133 88.8433 19.8137C89.3451 19.434 89.7485 18.9382 90.0194 18.3682C90.3094 17.7354 90.4462 17.0424 90.4187 16.3461C90.4262 15.7151 90.2711 15.093 89.9684 14.5404C89.6808 14.0465 89.3008 13.6133 88.8496 13.2647ZM101.801 13.2647C101.318 12.894 100.789 12.5887 100.227 12.3566C99.635 12.1082 99.0297 11.8742 98.4108 11.6546C97.8686 11.4725 97.4085 11.2983 97.0304 11.1319C96.7108 10.9971 96.4038 10.834 96.1129 10.6444C95.9044 10.5113 95.7286 10.3322 95.5989 10.1207C95.4841 9.91002 95.4253 9.6731 95.4281 9.43285C95.4301 9.24133 95.4734 9.05254 95.5552 8.87959C95.6369 8.70663 95.755 8.55364 95.9014 8.43125C96.3433 8.08798 96.8948 7.91961 97.4517 7.95797C98.0653 7.94396 98.679 7.98131 99.2864 8.06964C99.9617 8.18274 100.626 8.35406 101.272 8.5817C101.386 8.63158 101.511 8.6493 101.634 8.63294C101.72 8.61251 101.775 8.52303 101.846 8.37011L102.481 6.71811C102.517 6.58641 102.519 6.44788 102.488 6.31497C102.465 6.25002 102.429 6.19096 102.38 6.14204C102.332 6.09311 102.274 6.05553 102.209 6.03198C101.451 5.73766 100.664 5.52469 99.8608 5.39661C99.0582 5.26754 98.2459 5.20962 97.4332 5.22352C96.6398 5.2242 95.8515 5.34971 95.0966 5.5955C94.4807 5.79593 93.9089 6.11389 93.4125 6.532C92.9739 6.90884 92.6283 7.38305 92.4028 7.91725C92.1756 8.47053 92.067 9.06589 92.0843 9.66432C92.0829 10.189 92.1952 10.7077 92.4135 11.1842C92.6321 11.634 92.9385 12.0349 93.3144 12.3629C93.7583 12.7454 94.2546 13.0615 94.788 13.3015C95.4658 13.6135 96.1595 13.8896 96.866 14.1286C97.6821 14.3926 98.471 14.7354 99.2215 15.1523C99.4605 15.2772 99.6613 15.465 99.8025 15.6957C99.9438 15.9264 100.02 16.1914 100.024 16.4624C100.032 16.7002 99.9828 16.9364 99.881 17.1512C99.7792 17.3659 99.6276 17.5528 99.4389 17.696C98.9073 18.0603 98.2714 18.2384 97.6293 18.203C96.8716 18.2043 96.1157 18.126 95.3741 17.9692C94.5756 17.8178 93.8009 17.5689 93.0527 17.247C92.9788 17.2153 92.9074 17.1779 92.8278 17.1669C92.7482 17.156 92.6672 17.1616 92.5898 17.1833C92.4654 17.2656 92.3751 17.357 92.307 17.5192L91.6316 19.1238C91.5937 19.2143 91.577 19.2652 91.5665 19.3339C91.556 19.4026 91.5613 19.4729 91.5819 19.5392C91.6026 19.6056 91.6316 19.6475 91.6792 19.698C91.7267 19.7484 91.767 19.7817 91.8564 19.8301C92.2882 20.0639 92.7325 20.2513 93.196 20.3965C93.6903 20.5538 94.1953 20.6748 94.707 20.7588C95.2291 20.8453 95.751 20.908 96.2726 20.947C96.7942 20.9855 97.2864 20.9932 97.7495 20.9932C98.5274 20.9932 99.2668 20.8806 100.001 20.68C100.648 20.5073 101.256 20.2133 101.795 19.8137C102.296 19.4339 102.7 18.9381 102.97 18.3682C103.26 17.7353 103.397 17.0424 103.369 16.3461C103.377 15.7151 103.222 15.093 102.92 14.5404C102.632 14.0466 102.252 13.6133 101.801 13.2647Z" fill="#DD2222"></path>
</svg>
