<?xml version="1.0" standalone="no"?>
<!DOCTYPE svg PUBLIC "-//W3C//DTD SVG 20010904//EN"
 "http://www.w3.org/TR/2001/REC-SVG-20010904/DTD/svg10.dtd">
<svg version="1.0" xmlns="http://www.w3.org/2000/svg"
 width="700.000000pt" height="700.000000pt" viewBox="0 0 700.000000 700.000000"
 preserveAspectRatio="xMidYMid meet">
<metadata>
Created by potrace 1.11, written by Peter Selinger 2001-2013
</metadata>
<g transform="translate(0.000000,700.000000) scale(0.100000,-0.100000)"
fill="#000000" stroke="none">
<path d="M1328 6562 c-14 -3 -15 -306 -15 -3063 0 -2259 2 -3059 11 -3056 6 3
31 13 56 22 25 9 59 23 75 30 17 6 62 25 100 40 39 15 84 33 100 40 17 7 422
169 900 359 479 191 883 353 898 361 16 8 35 15 42 15 10 0 613 -236 690 -270
11 -5 146 -59 300 -121 154 -61 294 -117 310 -124 17 -7 107 -43 200 -79 94
-37 179 -71 190 -76 38 -18 450 -182 477 -190 l26 -8 0 3059 c0 2286 -3 3059
-12 3060 -34 2 -4335 4 -4348 1z"/>
</g>
</svg>
